<mxfile host="Electron" agent="Mozilla/5.0 (Windows NT 10.0; Win64; x64) AppleWebKit/537.36 (KHTML, like Gecko) draw.io/27.0.9 Chrome/134.0.6998.205 Electron/35.4.0 Safari/537.36" version="27.0.9">
  <diagram name="Page-1" id="dd472eb7-4b8b-5cd9-a60b-b15522922e76">
    <mxGraphModel dx="1426" dy="849" grid="1" gridSize="10" guides="1" tooltips="1" connect="1" arrows="1" fold="1" page="1" pageScale="1" pageWidth="1100" pageHeight="850" background="none" math="0" shadow="0">
      <root>
        <mxCell id="0" />
        <mxCell id="1" parent="0" />
        <mxCell id="374e34682ed331ee-1" value="" style="ellipse;whiteSpace=wrap;html=1;rounded=0;shadow=0;dashed=0;comic=0;fontFamily=Verdana;fontSize=22;fontColor=#0069D1;fillColor=#f5f5f5;strokeColor=#666666;" parent="1" vertex="1">
          <mxGeometry x="160" y="40" width="800" height="800" as="geometry" />
        </mxCell>
        <mxCell id="45236fa5f4b8e91a-5" value="" style="ellipse;whiteSpace=wrap;html=1;rounded=0;shadow=0;dashed=0;comic=0;fontFamily=Verdana;fontSize=22;fontColor=#0069D1;fillColor=#f5f5f5;strokeColor=#666666;" parent="1" vertex="1">
          <mxGeometry x="240" y="120" width="640" height="640" as="geometry" />
        </mxCell>
        <mxCell id="45236fa5f4b8e91a-4" value="" style="ellipse;whiteSpace=wrap;html=1;rounded=0;shadow=0;dashed=0;comic=0;fontFamily=Verdana;fontSize=22;fontColor=#0069D1;fillColor=#f5f5f5;strokeColor=#666666;" parent="1" vertex="1">
          <mxGeometry x="320" y="200" width="480" height="480" as="geometry" />
        </mxCell>
        <mxCell id="45236fa5f4b8e91a-8" value="" style="ellipse;whiteSpace=wrap;html=1;rounded=0;shadow=0;dashed=0;comic=0;fontFamily=Verdana;fontSize=22;fontColor=#0069D1;fillColor=#f5f5f5;strokeColor=#666666;" parent="1" vertex="1">
          <mxGeometry x="400" y="280" width="320" height="320" as="geometry" />
        </mxCell>
        <mxCell id="a5a6xt_mgjrctGd7EgZG-2" value="" style="line;strokeWidth=1;html=1;" vertex="1" parent="1">
          <mxGeometry x="160" y="435" width="800" height="10" as="geometry" />
        </mxCell>
        <mxCell id="a5a6xt_mgjrctGd7EgZG-3" value="" style="line;strokeWidth=1;direction=south;html=1;" vertex="1" parent="1">
          <mxGeometry x="555" y="40" width="10" height="800" as="geometry" />
        </mxCell>
        <mxCell id="a5a6xt_mgjrctGd7EgZG-4" value="Languages&lt;div&gt;and&lt;div&gt;Frameworks&lt;/div&gt;&lt;/div&gt;" style="text;html=1;align=center;verticalAlign=middle;resizable=0;points=[];autosize=1;strokeColor=none;fillColor=none;fontSize=16;fontStyle=1" vertex="1" parent="1">
          <mxGeometry x="850" y="770" width="110" height="70" as="geometry" />
        </mxCell>
        <mxCell id="a5a6xt_mgjrctGd7EgZG-5" value="Databases&lt;div&gt;and&lt;/div&gt;&lt;div&gt;Data&amp;nbsp;&lt;span style=&quot;background-color: transparent; color: light-dark(rgb(0, 0, 0), rgb(255, 255, 255));&quot;&gt;management&lt;/span&gt;&lt;/div&gt;" style="text;html=1;align=center;verticalAlign=middle;resizable=0;points=[];autosize=1;strokeColor=none;fillColor=none;fontSize=16;fontStyle=1" vertex="1" parent="1">
          <mxGeometry x="800" y="40" width="160" height="70" as="geometry" />
        </mxCell>
        <mxCell id="a5a6xt_mgjrctGd7EgZG-6" value="Methodology" style="text;html=1;align=center;verticalAlign=middle;resizable=0;points=[];autosize=1;strokeColor=none;fillColor=none;fontSize=16;fontStyle=1" vertex="1" parent="1">
          <mxGeometry x="160" y="40" width="120" height="30" as="geometry" />
        </mxCell>
        <mxCell id="a5a6xt_mgjrctGd7EgZG-7" value="Infrastructure" style="text;html=1;align=center;verticalAlign=middle;resizable=0;points=[];autosize=1;strokeColor=none;fillColor=none;fontSize=16;fontStyle=1" vertex="1" parent="1">
          <mxGeometry x="160" y="810" width="120" height="30" as="geometry" />
        </mxCell>
        <mxCell id="a5a6xt_mgjrctGd7EgZG-8" value="Rust" style="rounded=1;whiteSpace=wrap;html=1;fillColor=#fff2cc;strokeColor=#d6b656;" vertex="1" parent="1">
          <mxGeometry x="800" y="520" width="50" height="20" as="geometry" />
        </mxCell>
        <mxCell id="a5a6xt_mgjrctGd7EgZG-9" value="Data Mesh" style="rounded=1;whiteSpace=wrap;html=1;fillColor=#d5e8d4;strokeColor=#82b366;" vertex="1" parent="1">
          <mxGeometry x="475" y="415" width="80" height="20" as="geometry" />
        </mxCell>
        <mxCell id="a5a6xt_mgjrctGd7EgZG-10" value="Microservices" style="rounded=1;whiteSpace=wrap;html=1;fillColor=#dae8fc;strokeColor=#6c8ebf;" vertex="1" parent="1">
          <mxGeometry x="370" y="300" width="80" height="20" as="geometry" />
        </mxCell>
        <mxCell id="a5a6xt_mgjrctGd7EgZG-11" value="CI/CD" style="rounded=1;whiteSpace=wrap;html=1;fillColor=#dae8fc;strokeColor=#6c8ebf;" vertex="1" parent="1">
          <mxGeometry x="475" y="260" width="40" height="20" as="geometry" />
        </mxCell>
        <mxCell id="a5a6xt_mgjrctGd7EgZG-12" value="DDD" style="rounded=1;whiteSpace=wrap;html=1;fillColor=#d5e8d4;strokeColor=#82b366;" vertex="1" parent="1">
          <mxGeometry x="420" y="385" width="80" height="20" as="geometry" />
        </mxCell>
        <mxCell id="a5a6xt_mgjrctGd7EgZG-13" value="Monolith" style="rounded=1;whiteSpace=wrap;html=1;fillColor=#f8cecc;strokeColor=#b85450;" vertex="1" parent="1">
          <mxGeometry x="300" y="150" width="80" height="20" as="geometry" />
        </mxCell>
        <mxCell id="a5a6xt_mgjrctGd7EgZG-14" value="MS SQL Server" style="rounded=1;whiteSpace=wrap;html=1;fillColor=#f8cecc;strokeColor=#b85450;" vertex="1" parent="1">
          <mxGeometry x="670" y="110" width="100" height="20" as="geometry" />
        </mxCell>
        <mxCell id="a5a6xt_mgjrctGd7EgZG-16" value="Data LakeHouse" style="rounded=1;whiteSpace=wrap;html=1;fillColor=#d5e8d4;strokeColor=#82b366;" vertex="1" parent="1">
          <mxGeometry x="455" y="470" width="100" height="20" as="geometry" />
        </mxCell>
        <mxCell id="a5a6xt_mgjrctGd7EgZG-17" value="ADOPT" style="rounded=1;whiteSpace=wrap;html=1;fillColor=#d5e8d4;strokeColor=#82b366;fontStyle=1" vertex="1" parent="1">
          <mxGeometry x="520" y="290" width="80" height="20" as="geometry" />
        </mxCell>
        <mxCell id="a5a6xt_mgjrctGd7EgZG-18" value="HOLD" style="rounded=1;whiteSpace=wrap;html=1;fillColor=#f8cecc;strokeColor=#b85450;fontStyle=1" vertex="1" parent="1">
          <mxGeometry x="520" y="45" width="80" height="20" as="geometry" />
        </mxCell>
        <mxCell id="a5a6xt_mgjrctGd7EgZG-19" value="ASSESS" style="rounded=1;whiteSpace=wrap;html=1;fillColor=#fff2cc;strokeColor=#d6b656;fontStyle=1" vertex="1" parent="1">
          <mxGeometry x="520" y="126" width="80" height="20" as="geometry" />
        </mxCell>
        <mxCell id="a5a6xt_mgjrctGd7EgZG-20" value="TRIAL" style="rounded=1;whiteSpace=wrap;html=1;fillColor=#dae8fc;strokeColor=#6c8ebf;fontStyle=1" vertex="1" parent="1">
          <mxGeometry x="520" y="207" width="80" height="20" as="geometry" />
        </mxCell>
        <mxCell id="a5a6xt_mgjrctGd7EgZG-21" value="Data Hub" style="rounded=1;whiteSpace=wrap;html=1;fillColor=#d5e8d4;strokeColor=#82b366;" vertex="1" parent="1">
          <mxGeometry x="470" y="320" width="80" height="20" as="geometry" />
        </mxCell>
        <mxCell id="a5a6xt_mgjrctGd7EgZG-22" value="Apache Superset" style="rounded=1;whiteSpace=wrap;html=1;fillColor=#dae8fc;strokeColor=#6c8ebf;" vertex="1" parent="1">
          <mxGeometry x="580" y="610" width="100" height="20" as="geometry" />
        </mxCell>
        <mxCell id="a5a6xt_mgjrctGd7EgZG-23" value="Power BI" style="rounded=1;whiteSpace=wrap;html=1;fillColor=#f8cecc;strokeColor=#b85450;" vertex="1" parent="1">
          <mxGeometry x="730" y="720" width="80" height="20" as="geometry" />
        </mxCell>
        <mxCell id="a5a6xt_mgjrctGd7EgZG-24" value="Documentation" style="rounded=1;whiteSpace=wrap;html=1;fillColor=#dae8fc;strokeColor=#6c8ebf;" vertex="1" parent="1">
          <mxGeometry x="340" y="340" width="80" height="20" as="geometry" />
        </mxCell>
        <mxCell id="a5a6xt_mgjrctGd7EgZG-25" value="Apache Camel" style="rounded=1;whiteSpace=wrap;html=1;fillColor=#f8cecc;strokeColor=#b85450;" vertex="1" parent="1">
          <mxGeometry x="830" y="240" width="90" height="20" as="geometry" />
        </mxCell>
        <mxCell id="a5a6xt_mgjrctGd7EgZG-26" value="Docker" style="rounded=1;whiteSpace=wrap;html=1;fillColor=#d5e8d4;strokeColor=#82b366;" vertex="1" parent="1">
          <mxGeometry x="410" y="445" width="60" height="20" as="geometry" />
        </mxCell>
        <mxCell id="a5a6xt_mgjrctGd7EgZG-27" value="Kubernetes" style="rounded=1;whiteSpace=wrap;html=1;fillColor=#d5e8d4;strokeColor=#82b366;" vertex="1" parent="1">
          <mxGeometry x="475" y="550" width="80" height="20" as="geometry" />
        </mxCell>
        <mxCell id="a5a6xt_mgjrctGd7EgZG-28" value="Kafka" style="rounded=1;whiteSpace=wrap;html=1;fillColor=#d5e8d4;strokeColor=#82b366;" vertex="1" parent="1">
          <mxGeometry x="580" y="365" width="70" height="20" as="geometry" />
        </mxCell>
        <mxCell id="a5a6xt_mgjrctGd7EgZG-29" value="Redis" style="rounded=1;whiteSpace=wrap;html=1;fillColor=#dae8fc;strokeColor=#6c8ebf;fontStyle=0" vertex="1" parent="1">
          <mxGeometry x="650" y="280" width="70" height="20" as="geometry" />
        </mxCell>
        <mxCell id="a5a6xt_mgjrctGd7EgZG-30" value="Python" style="rounded=1;whiteSpace=wrap;html=1;fillColor=#d5e8d4;strokeColor=#82b366;" vertex="1" parent="1">
          <mxGeometry x="580" y="450" width="70" height="20" as="geometry" />
        </mxCell>
        <mxCell id="a5a6xt_mgjrctGd7EgZG-31" value="Java" style="rounded=1;whiteSpace=wrap;html=1;fillColor=#d5e8d4;strokeColor=#82b366;" vertex="1" parent="1">
          <mxGeometry x="565" y="480" width="70" height="20" as="geometry" />
        </mxCell>
        <mxCell id="a5a6xt_mgjrctGd7EgZG-32" value="Golang" style="rounded=1;whiteSpace=wrap;html=1;fillColor=#d5e8d4;strokeColor=#82b366;" vertex="1" parent="1">
          <mxGeometry x="595" y="510" width="70" height="20" as="geometry" />
        </mxCell>
        <mxCell id="a5a6xt_mgjrctGd7EgZG-33" value="Postgres" style="rounded=1;whiteSpace=wrap;html=1;fillColor=#d5e8d4;strokeColor=#82b366;" vertex="1" parent="1">
          <mxGeometry x="650" y="415" width="60" height="20" as="geometry" />
        </mxCell>
        <mxCell id="a5a6xt_mgjrctGd7EgZG-34" value="ClickHouse" style="rounded=1;whiteSpace=wrap;html=1;fillColor=#d5e8d4;strokeColor=#82b366;" vertex="1" parent="1">
          <mxGeometry x="570" y="415" width="70" height="20" as="geometry" />
        </mxCell>
        <mxCell id="a5a6xt_mgjrctGd7EgZG-35" value="API Gateway" style="rounded=1;whiteSpace=wrap;html=1;fillColor=#d5e8d4;strokeColor=#82b366;" vertex="1" parent="1">
          <mxGeometry x="465" y="350" width="80" height="20" as="geometry" />
        </mxCell>
        <mxCell id="a5a6xt_mgjrctGd7EgZG-36" value="Grafana" style="rounded=1;whiteSpace=wrap;html=1;fillColor=#dae8fc;strokeColor=#6c8ebf;fontStyle=0" vertex="1" parent="1">
          <mxGeometry x="700" y="330" width="70" height="20" as="geometry" />
        </mxCell>
        <mxCell id="a5a6xt_mgjrctGd7EgZG-37" value="Apache Airflow" style="rounded=1;whiteSpace=wrap;html=1;fillColor=#dae8fc;strokeColor=#6c8ebf;fontStyle=0" vertex="1" parent="1">
          <mxGeometry x="585" y="250" width="90" height="20" as="geometry" />
        </mxCell>
        <mxCell id="a5a6xt_mgjrctGd7EgZG-38" value="Apache Iceberg" style="rounded=1;whiteSpace=wrap;html=1;fillColor=#d5e8d4;strokeColor=#82b366;fontStyle=0" vertex="1" parent="1">
          <mxGeometry x="570" y="330" width="90" height="20" as="geometry" />
        </mxCell>
        <mxCell id="a5a6xt_mgjrctGd7EgZG-39" value="Power Builder" style="rounded=1;whiteSpace=wrap;html=1;fillColor=#f8cecc;strokeColor=#b85450;" vertex="1" parent="1">
          <mxGeometry x="800" y="650" width="80" height="20" as="geometry" />
        </mxCell>
        <mxCell id="a5a6xt_mgjrctGd7EgZG-40" value="MinIO" style="rounded=1;whiteSpace=wrap;html=1;fillColor=#fff2cc;strokeColor=#d6b656;" vertex="1" parent="1">
          <mxGeometry x="800" y="340" width="50" height="20" as="geometry" />
        </mxCell>
        <mxCell id="a5a6xt_mgjrctGd7EgZG-41" value="Nessie" style="rounded=1;whiteSpace=wrap;html=1;fillColor=#fff2cc;strokeColor=#d6b656;" vertex="1" parent="1">
          <mxGeometry x="780" y="320" width="50" height="20" as="geometry" />
        </mxCell>
        <mxCell id="a5a6xt_mgjrctGd7EgZG-42" value="Prometheus" style="rounded=1;whiteSpace=wrap;html=1;fillColor=#dae8fc;strokeColor=#6c8ebf;fontStyle=0" vertex="1" parent="1">
          <mxGeometry x="710" y="360" width="70" height="20" as="geometry" />
        </mxCell>
        <mxCell id="a5a6xt_mgjrctGd7EgZG-43" value="Strangler Fig" style="rounded=1;whiteSpace=wrap;html=1;fillColor=#dae8fc;strokeColor=#6c8ebf;" vertex="1" parent="1">
          <mxGeometry x="320" y="415" width="80" height="20" as="geometry" />
        </mxCell>
        <mxCell id="a5a6xt_mgjrctGd7EgZG-44" value="Snowflake" style="rounded=1;whiteSpace=wrap;html=1;fillColor=#fff2cc;strokeColor=#d6b656;fontStyle=0" vertex="1" parent="1">
          <mxGeometry x="570" y="150" width="70" height="20" as="geometry" />
        </mxCell>
        <mxCell id="a5a6xt_mgjrctGd7EgZG-45" value="Keycloak" style="rounded=1;whiteSpace=wrap;html=1;fillColor=#dae8fc;strokeColor=#6c8ebf;" vertex="1" parent="1">
          <mxGeometry x="360" y="550" width="80" height="20" as="geometry" />
        </mxCell>
        <mxCell id="a5a6xt_mgjrctGd7EgZG-46" value="AWS S3" style="rounded=1;whiteSpace=wrap;html=1;fillColor=#d5e8d4;strokeColor=#82b366;" vertex="1" parent="1">
          <mxGeometry x="450" y="510" width="60" height="20" as="geometry" />
        </mxCell>
        <mxCell id="a5a6xt_mgjrctGd7EgZG-47" value="REST" style="rounded=1;whiteSpace=wrap;html=1;fillColor=#dae8fc;strokeColor=#6c8ebf;" vertex="1" parent="1">
          <mxGeometry x="460" y="230" width="40" height="20" as="geometry" />
        </mxCell>
        <mxCell id="a5a6xt_mgjrctGd7EgZG-48" value="CQRS" style="rounded=1;whiteSpace=wrap;html=1;fillColor=#dae8fc;strokeColor=#6c8ebf;" vertex="1" parent="1">
          <mxGeometry x="405" y="270" width="50" height="20" as="geometry" />
        </mxCell>
        <mxCell id="a5a6xt_mgjrctGd7EgZG-49" value="Saga" style="rounded=1;whiteSpace=wrap;html=1;fillColor=#dae8fc;strokeColor=#6c8ebf;" vertex="1" parent="1">
          <mxGeometry x="357.5" y="380" width="45" height="20" as="geometry" />
        </mxCell>
        <mxCell id="a5a6xt_mgjrctGd7EgZG-50" value="C++" style="rounded=1;whiteSpace=wrap;html=1;fillColor=#fff2cc;strokeColor=#d6b656;" vertex="1" parent="1">
          <mxGeometry x="760" y="610" width="40" height="20" as="geometry" />
        </mxCell>
        <mxCell id="a5a6xt_mgjrctGd7EgZG-51" value="Tensorflow" style="rounded=1;whiteSpace=wrap;html=1;fillColor=#fff2cc;strokeColor=#d6b656;" vertex="1" parent="1">
          <mxGeometry x="770" y="570" width="70" height="20" as="geometry" />
        </mxCell>
        <mxCell id="a5a6xt_mgjrctGd7EgZG-52" value="Numpy" style="rounded=1;whiteSpace=wrap;html=1;fillColor=#fff2cc;strokeColor=#d6b656;" vertex="1" parent="1">
          <mxGeometry x="805" y="470" width="70" height="20" as="geometry" />
        </mxCell>
        <mxCell id="a5a6xt_mgjrctGd7EgZG-53" value="Elastic" style="rounded=1;whiteSpace=wrap;html=1;fillColor=#fff2cc;strokeColor=#d6b656;" vertex="1" parent="1">
          <mxGeometry x="805" y="415" width="50" height="20" as="geometry" />
        </mxCell>
        <mxCell id="a5a6xt_mgjrctGd7EgZG-54" value="Git" style="rounded=1;whiteSpace=wrap;html=1;fillColor=#d5e8d4;strokeColor=#82b366;" vertex="1" parent="1">
          <mxGeometry x="585" y="550" width="40" height="20" as="geometry" />
        </mxCell>
        <mxCell id="a5a6xt_mgjrctGd7EgZG-55" value="Jenkins" style="rounded=1;whiteSpace=wrap;html=1;fillColor=#dae8fc;strokeColor=#6c8ebf;" vertex="1" parent="1">
          <mxGeometry x="670" y="560" width="55" height="20" as="geometry" />
        </mxCell>
        <mxCell id="a5a6xt_mgjrctGd7EgZG-56" value="Choreography" style="rounded=1;whiteSpace=wrap;html=1;fillColor=#fff2cc;strokeColor=#d6b656;" vertex="1" parent="1">
          <mxGeometry x="317.5" y="240" width="82.5" height="20" as="geometry" />
        </mxCell>
        <mxCell id="a5a6xt_mgjrctGd7EgZG-57" value="Yandex S3" style="rounded=1;whiteSpace=wrap;html=1;fillColor=#fff2cc;strokeColor=#d6b656;" vertex="1" parent="1">
          <mxGeometry x="357.5" y="650" width="82.5" height="20" as="geometry" />
        </mxCell>
        <mxCell id="a5a6xt_mgjrctGd7EgZG-58" value="Redshift" style="rounded=1;whiteSpace=wrap;html=1;fillColor=#fff2cc;strokeColor=#d6b656;fontStyle=0" vertex="1" parent="1">
          <mxGeometry x="635" y="190" width="60" height="20" as="geometry" />
        </mxCell>
        <mxCell id="a5a6xt_mgjrctGd7EgZG-59" value="BigQuery" style="rounded=1;whiteSpace=wrap;html=1;fillColor=#fff2cc;strokeColor=#d6b656;fontStyle=0" vertex="1" parent="1">
          <mxGeometry x="605" y="170" width="60" height="20" as="geometry" />
        </mxCell>
        <mxCell id="a5a6xt_mgjrctGd7EgZG-60" value="AWS Glue" style="rounded=1;whiteSpace=wrap;html=1;fillColor=#fff2cc;strokeColor=#d6b656;fontStyle=0" vertex="1" parent="1">
          <mxGeometry x="720" y="207" width="60" height="20" as="geometry" />
        </mxCell>
        <mxCell id="a5a6xt_mgjrctGd7EgZG-61" value="Dataflow" style="rounded=1;whiteSpace=wrap;html=1;fillColor=#fff2cc;strokeColor=#d6b656;fontStyle=0" vertex="1" parent="1">
          <mxGeometry x="740" y="227" width="60" height="20" as="geometry" />
        </mxCell>
        <mxCell id="a5a6xt_mgjrctGd7EgZG-62" value="Yandex Object Storage" style="rounded=1;whiteSpace=wrap;html=1;fillColor=#fff2cc;strokeColor=#d6b656;" vertex="1" parent="1">
          <mxGeometry x="735" y="280" width="130" height="20" as="geometry" />
        </mxCell>
        <mxCell id="a5a6xt_mgjrctGd7EgZG-63" value="JDBC" style="rounded=1;whiteSpace=wrap;html=1;fillColor=#fff2cc;strokeColor=#d6b656;" vertex="1" parent="1">
          <mxGeometry x="815" y="380" width="50" height="20" as="geometry" />
        </mxCell>
        <mxCell id="a5a6xt_mgjrctGd7EgZG-64" value="GraphQL" style="rounded=1;whiteSpace=wrap;html=1;fillColor=#dae8fc;strokeColor=#6c8ebf;fontStyle=0" vertex="1" parent="1">
          <mxGeometry x="715" y="480" width="70" height="20" as="geometry" />
        </mxCell>
      </root>
    </mxGraphModel>
  </diagram>
</mxfile>
